<svg version="1.1" id="Layer_1" xmlns="http://www.w3.org/2000/svg" x="0" y="0" viewBox="0 0 294.99 29.67" xml:space="preserve">
  <style>.st0{fill:#010101}</style>
  <path class="st0" d="M17.23 18.54c-.46-.5-1.01-.92-1.64-1.24a6.88 6.88 0 00-2.13-.65v-.07c1.23-.38 2.22-1.01 2.97-1.9.75-.88 1.12-2 1.12-3.34 0-1.3-.26-2.34-.77-3.12a5.518 5.518 0 00-2.01-1.83c-.83-.44-1.76-.73-2.8-.87s-2.08-.22-3.1-.22H0v23.76h9.73c1.05 0 2.11-.11 3.17-.34a8.94 8.94 0 002.87-1.11c.85-.51 1.54-1.19 2.08-2.03.54-.84.81-1.89.81-3.14 0-.76-.12-1.48-.37-2.15a5.47 5.47 0 00-1.06-1.75zm-12-8.8h3.56c.4 0 .82.04 1.24.12.42.08.81.21 1.14.39.34.18.61.43.82.76.21.32.32.73.32 1.23 0 .47-.1.87-.29 1.21-.19.34-.44.6-.76.81-.31.2-.67.35-1.06.44s-.77.1-1.17.1h-3.8V9.74zm7.87 13.42c-.21.36-.49.65-.82.87-.34.22-.71.38-1.12.47-.41.09-.82.13-1.23.13h-4.7v-5.4h3.96c.42 0 .88.03 1.38.1.49.07.95.19 1.38.37.42.18.78.44 1.06.79.28.35.42.8.42 1.36-.01.51-.11.95-.33 1.31zM36.14 9.94V29h10.62L41.1 9.94zM45.5 5.59l3.72 14.95h.07l4.87-14.95zM24.23 9.94h6.68v19.07h-6.68zM56.51 12.62L51.29 29h10.5l-5.22-16.38zM59.21 5.59l4.85 15.35h.06l3.92-15.35zM73.02 29V6.68L66.49 29zM99.66 19.4h10.3v-4.83h-10.3v-4.43h10.9V5.31H94.42v1.42c-.86-.65-1.8-1.15-2.82-1.46-1.25-.38-2.55-.57-3.89-.57-1.16 0-2.29.16-3.39.49-1.1.32-2.06.81-2.9 1.46-.84.65-1.51 1.45-2.01 2.42-.5.96-.75 2.08-.75 3.36 0 1.32.27 2.38.82 3.19.55.81 1.24 1.45 2.06 1.95.83.49 1.72.88 2.69 1.18.96.29 1.86.58 2.68.87.83.29 1.52.64 2.06 1.06.55.41.82.98.82 1.69 0 .42-.11.79-.32 1.11-.21.31-.49.57-.84.77-.35.2-.74.35-1.17.45-.44.1-.87.15-1.29.15-.87 0-1.72-.2-2.53-.59-.82-.39-1.49-.95-2.03-1.66l-3.72 4.09c1.14 1.05 2.37 1.81 3.69 2.28 1.32.47 2.75.71 4.29.71 1.23 0 2.4-.16 3.51-.47 1.11-.31 2.08-.79 2.92-1.44.84-.65 1.5-1.46 2-2.45.05-.1.09-.21.13-.32v4.08h16.74v-4.83H99.66V19.4zm-5.44-.87a6.189 6.189 0 00-2.03-1.98c-.82-.49-1.7-.87-2.64-1.14-.94-.27-1.82-.54-2.63-.81-.82-.27-1.49-.59-2.03-.97-.54-.38-.81-.93-.81-1.64 0-.45.11-.83.34-1.14.22-.31.51-.56.87-.75.36-.19.74-.33 1.14-.42.4-.09.79-.13 1.18-.13.65 0 1.34.13 2.06.39.73.26 1.3.65 1.73 1.19l3.02-3.3v11.1c-.06-.15-.12-.28-.2-.4zM19.02 0h5.25v5.25h-5.25zM72.97 0h5.25v5.25h-5.25zM122.08 5.52h2.37v23.33h-2.37zM145.63 25.29h-.07l-13.9-19.77h-2.97v23.33h2.37V8.88h.07l13.9 19.97H148V5.52h-2.37zM169.42 8.44c-1.18-.98-2.49-1.71-3.95-2.19s-2.92-.72-4.37-.72h-7.74v23.33h7.74c1.45 0 2.9-.24 4.37-.72 1.46-.48 2.78-1.21 3.95-2.19 1.18-.98 2.13-2.19 2.85-3.64.72-1.45 1.09-3.15 1.09-5.11 0-1.93-.36-3.63-1.09-5.09-.72-1.48-1.67-2.7-2.85-3.67zm.74 12.25a8.555 8.555 0 01-1.93 3.03c-.87.89-1.95 1.6-3.26 2.14-1.31.54-2.85.81-4.63.81h-4.61V7.7h4.61c1.78 0 3.32.27 4.63.81s2.39 1.25 3.26 2.14c.87.89 1.51 1.9 1.93 3.03.42 1.13.63 2.3.63 3.51 0 1.2-.21 2.37-.63 3.5zM191.22 19.89c0 1.12-.11 2.08-.33 2.88-.22.8-.51 1.48-.87 2.03-.36.55-.77.98-1.22 1.3a6.024 6.024 0 01-2.67 1.09c-.43.06-.79.08-1.07.08-.31 0-.67-.03-1.09-.08-.42-.06-.85-.17-1.3-.35-.45-.18-.9-.42-1.35-.74-.45-.32-.86-.75-1.22-1.3s-.65-1.22-.87-2.03c-.22-.8-.33-1.76-.33-2.88V5.52h-2.37v14.63c0 .97.12 1.99.35 3.08.23 1.09.66 2.09 1.3 3.01.64.92 1.5 1.69 2.6 2.29 1.1.6 2.53.91 4.28.91 1.74 0 3.16-.3 4.27-.91 1.11-.6 1.98-1.37 2.62-2.29a8.23 8.23 0 001.3-3.01c.23-1.09.35-2.11.35-3.08V5.52h-2.37v14.37zM209.3 17.4c-.88-.49-1.84-.89-2.88-1.19-1.04-.3-2-.63-2.88-1-.88-.37-1.61-.85-2.21-1.43-.59-.58-.89-1.4-.89-2.45 0-.72.14-1.36.43-1.89.29-.54.66-.98 1.14-1.32.47-.34 1-.59 1.6-.76.59-.17 1.2-.25 1.81-.25 1.98 0 3.48.76 4.51 2.27L212 7.76c-.92-1.05-1.92-1.79-3-2.21-1.08-.42-2.27-.63-3.59-.63-.94 0-1.87.13-2.77.4-.9.26-1.71.67-2.42 1.22-.71.55-1.29 1.24-1.71 2.08-.43.84-.64 1.81-.64 2.93 0 1.08.17 1.97.51 2.69.34.71.79 1.31 1.35 1.78s1.2.86 1.91 1.17c.71.31 1.45.58 2.21.82s1.49.48 2.21.73c.71.24 1.35.54 1.91.91.56.36 1.01.81 1.35 1.35.34.54.51 1.21.51 2.03 0 .68-.15 1.29-.46 1.81-.31.53-.7.97-1.17 1.33-.47.36-1 .64-1.59.82-.59.19-1.18.28-1.77.28-1.23 0-2.29-.26-3.19-.77-.9-.52-1.6-1.2-2.1-2.06l-2.18 1.55c.9 1.23 1.99 2.11 3.28 2.65 1.29.54 2.64.81 4.07.81.92 0 1.84-.15 2.75-.46.91-.31 1.73-.75 2.47-1.32.74-.57 1.33-1.28 1.78-2.13.45-.85.68-1.8.68-2.85 0-1.41-.3-2.52-.89-3.33-.6-.81-1.34-1.47-2.21-1.96zM214.87 7.7h7.81v21.15h2.37V7.7h7.81V5.52h-17.99zM249.73 15.85c1.02-1.11 1.53-2.48 1.53-4.1 0-2.09-.69-3.65-2.06-4.68-1.37-1.03-3.25-1.55-5.62-1.55h-7.18v23.33h2.37V18.01h3.95l6.39 10.84h2.9l-6.72-11.07c1.94-.18 3.42-.82 4.44-1.93zm-10.96-.02V7.7h4.22c1.05 0 1.95.1 2.69.31s1.32.5 1.76.87c.44.37.76.81.96 1.3.2.49.3 1.02.3 1.57 0 .57-.1 1.1-.3 1.6-.2.49-.52.92-.96 1.29-.44.36-1.03.65-1.76.87-.74.22-1.63.33-2.69.33h-4.22zM255.49 5.52h2.37v23.33h-2.37zM264.46 17.81h11.3v-2.17h-11.3V7.7h12.09V5.52h-14.47v23.33h14.87v-2.17h-12.49zM291.89 17.4c-.88-.49-1.84-.89-2.88-1.19-1.04-.3-2-.63-2.88-1-.88-.37-1.61-.85-2.21-1.43-.59-.58-.89-1.4-.89-2.45 0-.72.14-1.36.43-1.89.29-.54.66-.98 1.14-1.32.47-.34 1.01-.59 1.6-.76.59-.17 1.2-.25 1.81-.25 1.98 0 3.48.76 4.51 2.27l2.08-1.61c-.92-1.05-1.92-1.79-3-2.21-1.08-.42-2.27-.63-3.59-.63-.94 0-1.87.13-2.77.4-.9.26-1.71.67-2.42 1.22-.71.55-1.29 1.24-1.71 2.08-.43.84-.64 1.81-.64 2.93 0 1.08.17 1.97.51 2.69.34.71.79 1.31 1.35 1.78s1.2.86 1.91 1.17c.71.31 1.45.58 2.21.82s1.49.48 2.21.73c.71.24 1.35.54 1.91.91.56.36 1.01.81 1.35 1.35.34.54.51 1.21.51 2.03 0 .68-.15 1.29-.46 1.81-.31.53-.7.97-1.17 1.33s-1 .64-1.59.82c-.59.19-1.18.28-1.77.28-1.23 0-2.29-.26-3.19-.77-.9-.52-1.6-1.2-2.1-2.06L279.97 26c.9 1.23 1.99 2.11 3.28 2.65 1.29.54 2.64.81 4.07.81.92 0 1.84-.15 2.75-.46.91-.31 1.73-.75 2.47-1.32.74-.57 1.33-1.28 1.78-2.13.45-.85.68-1.8.68-2.85 0-1.41-.3-2.52-.89-3.33a6.972 6.972 0 00-2.22-1.97z"/>
</svg>